<?xml version="1.0" encoding="UTF-8" standalone="no"?>
<svg width="24px" height="24px" viewBox="0 0 24 24" version="1.1" xmlns="http://www.w3.org/2000/svg" xmlns:xlink="http://www.w3.org/1999/xlink">
    <!-- Generator: Sketch 3.6.1 (26313) - http://www.bohemiancoding.com/sketch -->
    <title>Splash</title>
    <desc>Created with Sketch.</desc>
    <defs></defs>
    <g id="Page-1" stroke="none" stroke-width="1" fill="none" fill-rule="evenodd">
        <g id="Splash" transform="translate(-130.000000, -333.000000)">
            <g id="noun_172842_cc" transform="translate(131.000000, 336.000000)">
                <g id="Group">
                    <path d="M4.93777778,6.82 C4.93777778,4.25333333 6.55111111,1.98 8.99555556,0.66 L8.99555556,0.66 C8.23777778,0.415555556 7.40666667,0.268888889 6.55111111,0.268888889 C2.83555556,0.268888889 0.0244444444,2.56666667 0.0244444444,5.59777778 C0.0244444444,6.42888889 0.293333333,7.13777778 0.611111111,7.79777778 L3.3,13.5177778 C3.49555556,13.9088889 3.86222222,14.1533333 4.30222222,14.1533333 C4.91333333,14.1533333 5.40222222,13.6644444 5.40222222,13.0533333 L5.40222222,10.8533333 C5.76888889,10.9022222 6.13555556,10.9266667 6.52666667,10.9266667 C5.5,9.77777778 4.93777778,8.36 4.93777778,6.82 L4.93777778,6.82 Z" id="Shape" fill="#F7F7F7"></path>
                    <path d="M13.8355556,1.19777778 C17.7955556,1.19777778 21.0222222,3.56888889 21.0222222,6.84444444 C21.0222222,7.67555556 20.7533333,8.38444444 20.3866667,9.14222222 L16.9155556,16.5488889 C16.8911111,16.6222222 16.8177778,16.6466667 16.7688889,16.6466667 C16.6955556,16.6466667 16.5977778,16.5977778 16.5977778,16.4755556 L16.5977778,12.0511111 C15.7422222,12.32 14.8133333,12.4911111 13.8111111,12.4911111 C9.85111111,12.4911111 6.62444444,9.97333333 6.62444444,6.84444444 C6.64888889,3.71555556 9.87555556,1.19777778 13.8355556,1.19777778 L13.8355556,1.19777778 Z M13.8355556,0.22 C9.33777778,0.22 5.67111111,3.17777778 5.67111111,6.84444444 C5.67111111,10.5111111 9.33777778,13.4688889 13.8355556,13.4688889 C14.4466667,13.4688889 15.0577778,13.42 15.6444444,13.2977778 L15.6444444,16.4755556 C15.6444444,17.1111111 16.1577778,17.6244444 16.7933333,17.6244444 C17.2333333,17.6244444 17.6244444,17.38 17.82,16.9644444 L21.2911111,9.55777778 C21.6577778,8.75111111 22,7.87111111 22,6.84444444 C22,4.96222222 21.12,3.25111111 19.5066667,2.02888889 C18.0155556,0.855555556 15.9866667,0.22 13.8355556,0.22 L13.8355556,0.22 L13.8355556,0.22 Z" id="Shape" fill="#FFFFFF"></path>
                </g>
            </g>
        </g>
    </g>
</svg>