<?xml version="1.0" encoding="UTF-8" standalone="no"?>
<svg width="48px" height="48px" viewBox="0 0 48 48" version="1.1" xmlns="http://www.w3.org/2000/svg" xmlns:xlink="http://www.w3.org/1999/xlink">
    <!-- Generator: Sketch 3.7 (28169) - http://www.bohemiancoding.com/sketch -->
    <title>Artboard 1</title>
    <desc>Created with Sketch.</desc>
    <defs>
        <rect id="path-1" x="0" y="0" width="40" height="40" rx="2"></rect>
        <filter x="-50%" y="-50%" width="200%" height="200%" filterUnits="objectBoundingBox" id="filter-3">
            <feOffset dx="0" dy="1" in="SourceAlpha" result="shadowOffsetInner1"></feOffset>
            <feComposite in="shadowOffsetInner1" in2="SourceAlpha" operator="arithmetic" k2="-1" k3="1" result="shadowInnerInner1"></feComposite>
            <feColorMatrix values="0 0 0 0 1   0 0 0 0 1   0 0 0 0 1  0 0 0 0.2 0" type="matrix" in="shadowInnerInner1" result="shadowMatrixInner1"></feColorMatrix>
            <feOffset dx="0" dy="-1" in="SourceAlpha" result="shadowOffsetInner2"></feOffset>
            <feComposite in="shadowOffsetInner2" in2="SourceAlpha" operator="arithmetic" k2="-1" k3="1" result="shadowInnerInner2"></feComposite>
            <feColorMatrix values="0 0 0 0 0   0 0 0 0 0   0 0 0 0 0  0 0 0 0.2 0" type="matrix" in="shadowInnerInner2" result="shadowMatrixInner2"></feColorMatrix>
            <feMerge>
                <feMergeNode in="shadowMatrixInner1"></feMergeNode>
                <feMergeNode in="shadowMatrixInner2"></feMergeNode>
            </feMerge>
        </filter>
        <filter x="-50%" y="-50%" width="200%" height="200%" filterUnits="objectBoundingBox" id="filter-4">
            <feOffset dx="1" dy="1" in="SourceAlpha" result="shadowOffsetOuter1"></feOffset>
            <feGaussianBlur stdDeviation="0.5" in="shadowOffsetOuter1" result="shadowBlurOuter1"></feGaussianBlur>
            <feColorMatrix values="0 0 0 0 0   0 0 0 0 0   0 0 0 0 0  0 0 0 0.5 0" type="matrix" in="shadowBlurOuter1" result="shadowMatrixOuter1"></feColorMatrix>
            <feMerge>
                <feMergeNode in="shadowMatrixOuter1"></feMergeNode>
                <feMergeNode in="SourceGraphic"></feMergeNode>
            </feMerge>
        </filter>
        <radialGradient cx="0%" cy="0%" fx="0%" fy="0%" r="66.7771947%" id="radialGradient-5">
            <stop stop-color="#FFFFFF" stop-opacity="0.1" offset="0%"></stop>
            <stop stop-color="#FFFFFF" stop-opacity="0" offset="100%"></stop>
        </radialGradient>
    </defs>
    <g id="Page-1" stroke="none" stroke-width="1" fill="none" fill-rule="evenodd">
        <g id="Artboard-1" transform="translate(-47.000000, -83.000000)">
            <g id="Group-3" transform="translate(51.000000, 87.000000)">
                <g id="Group-2">
                    <mask id="mask-2" fill="white">
                        <use xlink:href="#path-1"></use>
                    </mask>
                    <g id="Rectangle-1">
                        <use fill="#09639F" fill-rule="evenodd" xlink:href="#path-1"></use>
                        <use fill="black" fill-opacity="1" filter="url(#filter-3)" xlink:href="#path-1"></use>
                    </g>
                    <path d="M18.531954,8.02085563 C20.5925666,6.9682702 23.0308238,6.36 25.64,6.36 C29.16,6.36 32.48,7.4 34.92,9.32 C35.5436181,9.79243792 36.1002768,10.3095154 36.5868129,10.8643783 C36.9473381,11.1816415 133.280933,107.515543 133.586813,107.864378 L133.586813,107.864378 C135.801529,109.813335 137,112.39015 137,115.2 C137,116.88 136.44,118.32 135.84,119.64 L130.16,131.76 C129.84,132.44 129.2,132.84 128.48,132.84 C127.7,132.84 127.0325,132.3675 126.7475,131.6925 C126.2975,131.5025 120.99249,126.196002 120.793511,125.79306 C117.51127,125.214484 114.673791,123.656166 112.77673,121.511212 C112.738534,121.477324 111.600866,120.343503 109.599138,118.345163 C110.03505,119.633558 110.738071,120.825937 111.68,121.88 C111.04,121.88 110.44,121.84 109.84,121.76 L109.84,125.36 C109.84,126.36 109.04,127.16 108.04,127.16 C107.32,127.16 106.72,126.76 106.4,126.12 L106.357271,126.029104 L106.357271,126.029104 C105.946413,125.862205 8.6118477,28.5436954 8.4,28.12 L4,18.76 C3.48,17.68 3.04,16.52 3.04,15.16 C3.04,10.2 7.64,6.44 13.72,6.44 C15.12,6.44 16.48,6.68 17.72,7.08 C17.4073543,7.24882868 17.1030171,7.42718773 16.8075997,7.61456143 C17.4004952,7.71319759 17.9775956,7.85094458 18.531954,8.02085563 Z" id="Combined-Shape" fill-opacity="0.2" fill="#000000" mask="url(#mask-2)"></path>
                </g>
                <g id="noun_172842_cc" filter="url(#filter-4)" transform="translate(2.000000, 5.000000)">
                    <g id="Group">
                        <g id="Shape" fill="#F7F7F7">
                            <path d="M8.08,11.16 C8.08,6.96 10.72,3.24 14.72,1.08 L14.72,1.08 C13.48,0.68 12.12,0.44 10.72,0.44 C4.64,0.44 0.04,4.2 0.04,9.16 C0.04,10.52 0.48,11.68 1,12.76 L5.4,22.12 C5.72,22.76 6.32,23.16 7.04,23.16 C8.04,23.16 8.84,22.36 8.84,21.36 L8.84,17.76 C9.44,17.84 10.04,17.88 10.68,17.88 C9,16 8.08,13.68 8.08,11.16 L8.08,11.16 Z"></path>
                        </g>
                        <g id="Shape" transform="translate(9.000000, 0.000000)" fill="#FFFFFF">
                            <path d="M13.6399988,1.96 C20.1199988,1.96 25.3999988,5.84 25.3999988,11.2 C25.3999988,12.56 24.9599988,13.72 24.3599988,14.96 L18.6799988,27.08 C18.6399988,27.2 18.5199988,27.24 18.4399988,27.24 C18.3199988,27.24 18.1599988,27.16 18.1599988,26.96 L18.1599988,19.72 C16.7599988,20.16 15.2399988,20.44 13.5999988,20.44 C7.11999878,20.44 1.83999878,16.32 1.83999878,11.2 C1.87999878,6.08 7.15999878,1.96 13.6399988,1.96 L13.6399988,1.96 Z M13.6399988,0.36 C6.27999878,0.36 0.279998779,5.2 0.279998779,11.2 C0.279998779,17.2 6.27999878,22.04 13.6399988,22.04 C14.6399988,22.04 15.6399988,21.96 16.5999988,21.76 L16.5999988,26.96 C16.5999988,28 17.4399988,28.84 18.4799988,28.84 C19.1999988,28.84 19.8399988,28.44 20.1599988,27.76 L25.8399988,15.64 C26.4399988,14.32 26.9999988,12.88 26.9999988,11.2 C26.9999988,8.12 25.5599988,5.32 22.9199988,3.32 C20.4799988,1.4 17.1599988,0.36 13.6399988,0.36 L13.6399988,0.36 L13.6399988,0.36 Z"></path>
                        </g>
                    </g>
                </g>
                <rect id="Rectangle-2" fill="url(#radialGradient-5)" style="mix-blend-mode: multiply;" x="0" y="0" width="40" height="40" rx="2"></rect>
            </g>
        </g>
    </g>
</svg>