<?xml version="1.0" encoding="UTF-8" standalone="no"?>
<svg width="120px" height="120px" viewBox="0 0 120 120" version="1.1" xmlns="http://www.w3.org/2000/svg" xmlns:xlink="http://www.w3.org/1999/xlink">
    <!-- Generator: Sketch 3.7 (28169) - http://www.bohemiancoding.com/sketch -->
    <title>Artboard 1</title>
    <desc>Created with Sketch.</desc>
    <defs></defs>
    <g id="Page-1" stroke="none" stroke-width="1" fill="none" fill-rule="evenodd">
        <g id="Artboard-1" transform="translate(-155.000000, -11.000000)">
            <rect id="Rectangle-7" fill="#D8D8D8" x="155" y="11" width="120" height="120"></rect>
            <g id="ic_broken_image_white_24px" transform="translate(191.000000, 47.000000)">
                <g id="Group">
                    <path d="M0,0 L48,0 L48,48 L0,48 L0,0 Z M0,0 L48,0 L48,48 L0,48 L0,0 Z M42,38 C42,40.2 40.2,42 38,42 L10,42 C7.8,42 6,40.2 6,38 L6,10 C6,7.8 7.8,6 10,6 L38,6 C40.2,6 42,7.8 42,10 L42,38 Z" id="Shape"></path>
                    <polygon id="Shape" points="0 0 48 0 48 48 0 48"></polygon>
                    <path d="M42,10 L42,23.18 L36,17.16 L28,25.18 L20,17.18 L12,25.18 L6,19.16 L6,10 C6,7.8 7.8,6 10,6 L38,6 C40.2,6 42,7.8 42,10 L42,10 Z M36,22.84 L42,28.86 L42,38 C42,40.2 40.2,42 38,42 L10,42 C7.8,42 6,40.2 6,38 L6,24.84 L12,30.82 L20,22.82 L28,30.82 L36,22.84 L36,22.84 Z" id="Shape" fill="#09639F"></path>
                </g>
            </g>
        </g>
    </g>
</svg>