<?xml version="1.0" encoding="UTF-8" standalone="no"?>
<svg width="144px" height="128px" viewBox="0 0 144 128" version="1.1" xmlns="http://www.w3.org/2000/svg" xmlns:xlink="http://www.w3.org/1999/xlink">
    <!-- Generator: Sketch 3.7 (28169) - http://www.bohemiancoding.com/sketch -->
    <title>Splash</title>
    <desc>Created with Sketch.</desc>
    <defs></defs>
    <g id="Page-1" stroke="none" stroke-width="1" fill="none" fill-rule="evenodd">
        <g id="Splash" transform="translate(-88.000000, -104.000000)">
            <text id="Versus" font-family="FuturaBQ-Medium, Futura BQ" font-size="48" font-weight="400" line-spacing="56">
                <tspan x="97" y="228" fill="#09639F">V</tspan>
                <tspan x="124.552" y="228" fill="#F7F7F7">er</tspan>
                <tspan x="164.296" y="228" fill="#09639F">s</tspan>
                <tspan x="182.296" y="228" fill="#F7F7F7">us</tspan>
            </text>
            <g id="noun_172842_cc" transform="translate(115.000000, 107.000000)">
                <g id="Group">
                    <path d="M20.2,27.9 C20.2,17.4 26.8,8.1 36.8,2.7 L36.8,2.7 C33.7,1.7 30.3,1.1 26.8,1.1 C11.6,1.1 0.1,10.5 0.1,22.9 C0.1,26.3 1.2,29.2 2.5,31.9 L13.5,55.3 C14.3,56.9 15.8,57.9 17.6,57.9 C20.1,57.9 22.1,55.9 22.1,53.4 L22.1,44.4 C23.6,44.6 25.1,44.7 26.7,44.7 C22.5,40 20.2,34.2 20.2,27.9 L20.2,27.9 Z" id="Shape" fill="#F7F7F7"></path>
                    <path d="M56.6,4.9 C72.8,4.9 86,14.6 86,28 C86,31.4 84.9,34.3 83.4,37.4 L69.2,67.7 C69.1,68 68.8,68.1 68.6,68.1 C68.3,68.1 67.9,67.9 67.9,67.4 L67.9,49.3 C64.4,50.4 60.6,51.1 56.5,51.1 C40.3,51.1 27.1,40.8 27.1,28 C27.2,15.2 40.4,4.9 56.6,4.9 L56.6,4.9 Z M56.6,0.9 C38.2,0.9 23.2,13 23.2,28 C23.2,43 38.2,55.1 56.6,55.1 C59.1,55.1 61.6,54.9 64,54.4 L64,67.4 C64,70 66.1,72.1 68.7,72.1 C70.5,72.1 72.1,71.1 72.9,69.4 L87.1,39.1 C88.6,35.8 90,32.2 90,28 C90,20.3 86.4,13.3 79.8,8.3 C73.7,3.5 65.4,0.9 56.6,0.9 L56.6,0.9 L56.6,0.9 Z" id="Shape" fill="#09639F"></path>
                </g>
            </g>
        </g>
    </g>
</svg>