<?xml version="1.0" encoding="UTF-8" standalone="no"?>
<svg width="72px" height="72px" viewBox="0 0 72 72" version="1.1" xmlns="http://www.w3.org/2000/svg" xmlns:xlink="http://www.w3.org/1999/xlink">
    <!-- Generator: Sketch 3.7.2 (28276) - http://www.bohemiancoding.com/sketch -->
    <title>Group</title>
    <desc>Created with Sketch.</desc>
    <defs></defs>
    <g id="Page-1" stroke="none" stroke-width="1" fill="none" fill-rule="evenodd">
        <g id="Artboard-2" transform="translate(-13.000000, -28.000000)">
            <g id="ic_network_wifi_white_24px" transform="translate(13.000000, 28.000000)">
                <g id="Group">
                    <polygon id="Shape" points="0 0 72 0 72 72 0 72"></polygon>
                    <g>
                        <polygon id="Shape" points="0 0 72 0 72 72 0 72"></polygon>
                        <path d="M67.3081988,25.5 L70.92,21 C69.57,19.98 56.13,9 36,9 C15.84,9 2.43,19.98 1.08,21 L10.5906662,32.8494887 C10.5904439,32.8496593 10.5902218,32.8498298 10.59,32.85 L10.59,32.85 L35.97,64.47 L36,64.5 L36.03,64.47 L55.5,40.2130496 L55.5,25.5 L67.3081988,25.5 Z M60,54 L66,54 L66,30 L60,30 L60,54 Z M60,66 L66,66 L66,60 L60,60 L60,66 Z" id="Combined-Shape" fill="#FFFFFF"></path>
                    </g>
                </g>
            </g>
        </g>
    </g>
</svg>